<svg width="40" height="40" viewBox="0 0 40 40" fill="none" xmlns="http://www.w3.org/2000/svg">
<rect width="40" height="40" rx="20" fill="#000000"/>
<path d="M20.222 13.385c.832 0 1.875-.58 2.496-1.353.563-.7.973-1.68.973-2.658 0-.133-.012-.266-.035-.374-.93.036-2.043.64-2.711 1.45-.528.616-1.008 1.582-1.008 2.572 0 .145.023.29.035.338.058.012.152.024.246.024zM17.293 28c1.137 0 1.64-.785 3.059-.785 1.441 0 1.758.76 3.023.76 1.242 0 2.074-1.183 2.86-2.343.879-1.329 1.242-2.633 1.265-2.693-.082-.024-2.46-1.027-2.46-3.84 0-2.44 1.874-3.54 1.98-3.624-1.242-1.836-3.129-1.884-3.644-1.884-1.395 0-2.531.87-3.246.87-.774 0-1.793-.82-3-.82-2.297 0-4.63 1.957-4.63 5.653 0 2.295.868 4.723 1.934 6.294.914 1.329 1.711 2.416 2.86 2.416z" fill="white"/>
<rect x="0.5" y="0.5" width="39" height="39" rx="19.5" stroke="#8E918F" stroke-opacity="0.3"/>
</svg>
